<svg xmlns="http://www.w3.org/2000/svg" width="27.143" height="26" viewBox="0 0 27.143 26">
  <g id="Icon_feather-shopping-cart" data-name="Icon feather-shopping-cart" transform="translate(1 1)">
    <path id="Path_66" data-name="Path 66" d="M14.514,31.257A1.257,1.257,0,1,1,13.257,30,1.257,1.257,0,0,1,14.514,31.257Z" transform="translate(-4.08 -8.514)" fill="none" stroke="#000" stroke-linecap="round" stroke-linejoin="round" stroke-width="2"/>
    <path id="Path_67" data-name="Path 67" d="M31.014,31.257A1.257,1.257,0,1,1,29.757,30,1.257,1.257,0,0,1,31.014,31.257Z" transform="translate(-8.385 -8.514)" fill="none" stroke="#000" stroke-linecap="round" stroke-linejoin="round" stroke-width="2"/>
    <path id="Path_68" data-name="Path 68" d="M1.5,1.5H6.071L9.134,16.192a2.266,2.266,0,0,0,2.286,1.767H22.529a2.266,2.266,0,0,0,2.286-1.767l1.829-9.206H7.214" transform="translate(-1.5 -1.5)" fill="none" stroke="#000" stroke-linecap="round" stroke-linejoin="round" stroke-width="2"/>
  </g>
</svg>
