<svg xmlns="http://www.w3.org/2000/svg" width="26" height="24" viewBox="0 0 26 24">
  <path id="Icon_ionic-md-heart-empty" data-name="Icon ionic-md-heart-empty" d="M22.225,4.5a7.69,7.69,0,0,0-5.85,2.744A7.69,7.69,0,0,0,10.525,4.5a7.069,7.069,0,0,0-7.15,7.194c0,4.969,4.419,8.956,11.113,15.106l1.888,1.7,1.887-1.7c6.694-6.15,11.113-10.137,11.113-15.106A7.069,7.069,0,0,0,22.225,4.5Zm-5.05,20.581-.262.244-.537.487-.538-.487-.262-.244a79.442,79.442,0,0,1-7.669-7.625c-1.75-2.169-2.525-3.944-2.525-5.763A5.2,5.2,0,0,1,6.863,7.987,5.086,5.086,0,0,1,10.525,6.5a5.732,5.732,0,0,1,4.319,2.031l1.531,1.819,1.531-1.819A5.711,5.711,0,0,1,22.225,6.5a5.111,5.111,0,0,1,3.669,1.487,5.209,5.209,0,0,1,1.481,3.706c0,1.813-.781,3.594-2.525,5.763A79.6,79.6,0,0,1,17.175,25.081Z" transform="translate(-3.375 -4.5)"/>
</svg>
