<svg xmlns="http://www.w3.org/2000/svg" width="40.657" height="40.401" viewBox="0 0 40.657 40.401">
  <path id="Subtraction_2" data-name="Subtraction 2" d="M20.329,40.4A20.261,20.261,0,0,1,5.954,34.484a20.11,20.11,0,0,1,0-28.567,20.42,20.42,0,0,1,28.749,0,20.11,20.11,0,0,1,0,28.567A20.261,20.261,0,0,1,20.329,40.4Zm0-34.6c-3.852,0-4.368.016-5.936.086a10.73,10.73,0,0,0-3.494.669A7.362,7.362,0,0,0,6.688,10.77a10.65,10.65,0,0,0-.669,3.5c-.072,1.525-.087,1.985-.087,5.935,0,3.857.017,4.373.087,5.936a10.676,10.676,0,0,0,.669,3.494A7.354,7.354,0,0,0,10.9,33.841a10.687,10.687,0,0,0,3.494.669c1.525.072,1.985.087,5.936.087,3.857,0,4.373-.017,5.935-.087a10.706,10.706,0,0,0,3.5-.669A7.354,7.354,0,0,0,33.97,29.63a10.7,10.7,0,0,0,.669-3.494c.071-1.506.086-1.964.086-5.936,0-3.851-.016-4.367-.086-5.935a10.751,10.751,0,0,0-.669-3.5,7.362,7.362,0,0,0-4.211-4.211,10.705,10.705,0,0,0-3.5-.669C24.758,5.818,24.3,5.8,20.329,5.8ZM20.293,32c-3.916,0-4.322-.019-5.83-.088a8.171,8.171,0,0,1-2.684-.506,4.453,4.453,0,0,1-1.654-1.078,4.4,4.4,0,0,1-1.079-1.655,8.151,8.151,0,0,1-.5-2.681l0-.065c-.053-1.473-.071-1.969-.071-5.747s.018-4.275.071-5.76l0-.071a8.148,8.148,0,0,1,.5-2.68,4.284,4.284,0,0,1,1.079-1.656A4.285,4.285,0,0,1,11.78,8.936a7.961,7.961,0,0,1,2.665-.506l.071,0c1.473-.052,1.969-.069,5.759-.069l.055.036c3.868,0,4.32.02,5.818.085a7.888,7.888,0,0,1,2.672.5,4.728,4.728,0,0,1,2.733,2.732,7.932,7.932,0,0,1,.5,2.672c.069,1.543.084,2,.084,5.818,0,3.778-.017,4.284-.089,5.819a8.124,8.124,0,0,1-.5,2.672,4.588,4.588,0,0,1-1.078,1.658A4.485,4.485,0,0,1,28.8,31.424a7.951,7.951,0,0,1-2.681.5C24.569,31.988,24.108,32,20.293,32Zm.036-19.2A7.393,7.393,0,1,0,27.722,20.2,7.4,7.4,0,0,0,20.329,12.807Zm7.685-2.017a1.727,1.727,0,1,0,1.728,1.726,1.729,1.729,0,0,0-1.728-1.726ZM20.329,25a4.8,4.8,0,1,1,4.8-4.8A4.8,4.8,0,0,1,20.329,25Z" fill="#fccea6"/>
</svg>
