<svg xmlns="http://www.w3.org/2000/svg" width="20.335" height="20.335" viewBox="0 0 20.335 20.335">
  <path id="Icon_awesome-phone-alt" data-name="Icon awesome-phone-alt" d="M19.755,14.37l-4.448-1.906a.953.953,0,0,0-1.112.274l-1.97,2.407A14.722,14.722,0,0,1,5.187,8.107l2.407-1.97a.951.951,0,0,0,.274-1.112L5.962.576A.96.96,0,0,0,4.869.024L.739.978A.953.953,0,0,0,0,1.907,18.427,18.427,0,0,0,18.429,20.335a.953.953,0,0,0,.929-.739l.953-4.131a.965.965,0,0,0-.556-1.1Z" transform="translate(0 0)" fill="#fccea6"/>
</svg>
