<svg xmlns="http://www.w3.org/2000/svg" width="15.671" height="14.551" viewBox="0 0 15.671 14.551">
  <path id="Icon_ionic-ios-star" data-name="Icon ionic-ios-star" d="M17.326,8.412H12.181L10.617,3.746a.567.567,0,0,0-1.063,0L7.99,8.412H2.81a.561.561,0,0,0-.56.56.411.411,0,0,0,.01.094.538.538,0,0,0,.234.4l4.229,2.98L5.1,17.16a.561.561,0,0,0,.192.63.541.541,0,0,0,.315.136.686.686,0,0,0,.35-.126l4.128-2.942L14.213,17.8a.655.655,0,0,0,.35.126.5.5,0,0,0,.311-.136.554.554,0,0,0,.192-.63l-1.623-4.719,4.194-3.008.1-.087a.535.535,0,0,0-.413-.934Z" transform="translate(-2.25 -3.375)" fill="#fbe2cc"/>
</svg>
